<svg xmlns="http://www.w3.org/2000/svg" xmlns:xlink="http://www.w3.org/1999/xlink" contentStyleType="text/css" data-diagram-type="SEQUENCE" height="1351px" preserveAspectRatio="none" style="width:955px;height:1351px;background:#FFFFFF;" version="1.1" viewBox="0 0 955 1351" width="955px" zoomAndPan="magnify"><title>DAI &#8212; Sequence Diagram (Post-op&#233;ratoire / SSPI)</title><defs/><g><text fill="#000000" font-family="sans-serif" font-size="14" font-weight="bold" lengthAdjust="spacing" textLength="391.8154" x="277.7964" y="27.9951">DAI &#8212; Sequence Diagram (Post-op&#233;ratoire / SSPI)</text><g><title>Equipe SSPI</title><rect fill="#000000" fill-opacity="0.00000" height="1151.7813" width="8" x="45.395" y="118.5938"/><line style="stroke:#181818;stroke-width:0.5;stroke-dasharray:5,5;" x1="49" x2="49" y1="118.5938" y2="1270.375"/></g><g><title>DAI Frontend .SSPI.</title><rect fill="#000000" fill-opacity="0.00000" height="1151.7813" width="8" x="234.3833" y="118.5938"/><line style="stroke:#181818;stroke-width:0.5;stroke-dasharray:5,5;" x1="237.501" x2="237.501" y1="118.5938" y2="1270.375"/></g><g><title>DAI Backend API</title><rect fill="#000000" fill-opacity="0.00000" height="1151.7813" width="8" x="417.4111" y="118.5938"/><line style="stroke:#181818;stroke-width:0.5;stroke-dasharray:5,5;" x1="420.4629" x2="420.4629" y1="118.5938" y2="1270.375"/></g><g><title>PostOp Module</title><rect fill="#000000" fill-opacity="0.00000" height="1151.7813" width="8" x="657.0601" y="118.5938"/><line style="stroke:#181818;stroke-width:0.5;stroke-dasharray:5,5;" x1="660.5327" x2="660.5327" y1="118.5938" y2="1270.375"/></g><g><title>DAI Database</title><rect fill="#000000" fill-opacity="0.00000" height="1151.7813" width="8" x="888.5396" y="118.5938"/><line style="stroke:#181818;stroke-width:0.5;stroke-dasharray:5,5;" x1="891.6709" x2="891.6709" y1="118.5938" y2="1270.375"/></g><g class="participant participant-head" data-participant="SSPI"><text fill="#000000" font-family="sans-serif" font-size="14" lengthAdjust="spacing" textLength="82.79" x="5" y="115.292">Equipe SSPI</text><ellipse cx="49.395" cy="50.7969" fill="#E2E2F0" rx="8" ry="8" style="stroke:#181818;stroke-width:0.5;"/><path d="M49.395,58.7969 L49.395,85.7969 M36.395,66.7969 L62.395,66.7969 M49.395,85.7969 L36.395,100.7969 M49.395,85.7969 L62.395,100.7969" fill="none" style="stroke:#181818;stroke-width:0.5;"/></g><g class="participant participant-tail" data-participant="SSPI"><text fill="#000000" font-family="sans-serif" font-size="14" lengthAdjust="spacing" textLength="82.79" x="5" y="1282.3701">Equipe SSPI</text><ellipse cx="49.395" cy="1294.1719" fill="#E2E2F0" rx="8" ry="8" style="stroke:#181818;stroke-width:0.5;"/><path d="M49.395,1302.1719 L49.395,1329.1719 M36.395,1310.1719 L62.395,1310.1719 M49.395,1329.1719 L36.395,1344.1719 M49.395,1329.1719 L62.395,1344.1719" fill="none" style="stroke:#181818;stroke-width:0.5;"/></g><g class="participant participant-head" data-participant="FE"><rect fill="#E2E2F0" height="30.2969" rx="2.5" ry="2.5" style="stroke:#181818;stroke-width:0.5;" width="151.7646" x="162.501" y="87.2969"/><text fill="#000000" font-family="sans-serif" font-size="14" lengthAdjust="spacing" textLength="137.7646" x="169.501" y="107.292">DAI Frontend (SSPI)</text></g><g class="participant participant-tail" data-participant="FE"><rect fill="#E2E2F0" height="30.2969" rx="2.5" ry="2.5" style="stroke:#181818;stroke-width:0.5;" width="151.7646" x="162.501" y="1269.375"/><text fill="#000000" font-family="sans-serif" font-size="14" lengthAdjust="spacing" textLength="137.7646" x="169.501" y="1289.3701">DAI Frontend (SSPI)</text></g><g class="participant participant-head" data-participant="BE"><rect fill="#E2E2F0" height="30.2969" rx="2.5" ry="2.5" style="stroke:#181818;stroke-width:0.5;" width="129.8965" x="356.4629" y="87.2969"/><text fill="#000000" font-family="sans-serif" font-size="14" lengthAdjust="spacing" textLength="115.8965" x="363.4629" y="107.292">DAI Backend API</text></g><g class="participant participant-tail" data-participant="BE"><rect fill="#E2E2F0" height="30.2969" rx="2.5" ry="2.5" style="stroke:#181818;stroke-width:0.5;" width="129.8965" x="356.4629" y="1269.375"/><text fill="#000000" font-family="sans-serif" font-size="14" lengthAdjust="spacing" textLength="115.8965" x="363.4629" y="1289.3701">DAI Backend API</text></g><g class="participant participant-head" data-participant="POSTOP"><rect fill="#E2E2F0" height="30.2969" rx="2.5" ry="2.5" style="stroke:#181818;stroke-width:0.5;" width="119.0547" x="601.5327" y="87.2969"/><text fill="#000000" font-family="sans-serif" font-size="14" lengthAdjust="spacing" textLength="105.0547" x="608.5327" y="107.292">PostOp Module</text></g><g class="participant participant-tail" data-participant="POSTOP"><rect fill="#E2E2F0" height="30.2969" rx="2.5" ry="2.5" style="stroke:#181818;stroke-width:0.5;" width="119.0547" x="601.5327" y="1269.375"/><text fill="#000000" font-family="sans-serif" font-size="14" lengthAdjust="spacing" textLength="105.0547" x="608.5327" y="1289.3701">PostOp Module</text></g><g class="participant participant-head" data-participant="DB"><text fill="#000000" font-family="sans-serif" font-size="14" lengthAdjust="spacing" textLength="95.7373" x="841.6709" y="115.292">DAI Database</text><path d="M874.5396,66.2969 C874.5396,56.2969 892.5396,56.2969 892.5396,56.2969 C892.5396,56.2969 910.5396,56.2969 910.5396,66.2969 L910.5396,92.2969 C910.5396,102.2969 892.5396,102.2969 892.5396,102.2969 C892.5396,102.2969 874.5396,102.2969 874.5396,92.2969 L874.5396,66.2969" fill="#E2E2F0" style="stroke:#181818;stroke-width:0.5;"/><path d="M874.5396,66.2969 C874.5396,76.2969 892.5396,76.2969 892.5396,76.2969 C892.5396,76.2969 910.5396,76.2969 910.5396,66.2969" fill="none" style="stroke:#181818;stroke-width:0.5;"/></g><g class="participant participant-tail" data-participant="DB"><text fill="#000000" font-family="sans-serif" font-size="14" lengthAdjust="spacing" textLength="95.7373" x="841.6709" y="1282.3701">DAI Database</text><path d="M874.5396,1295.6719 C874.5396,1285.6719 892.5396,1285.6719 892.5396,1285.6719 C892.5396,1285.6719 910.5396,1285.6719 910.5396,1295.6719 L910.5396,1321.6719 C910.5396,1331.6719 892.5396,1331.6719 892.5396,1331.6719 C892.5396,1331.6719 874.5396,1331.6719 874.5396,1321.6719 L874.5396,1295.6719" fill="#E2E2F0" style="stroke:#181818;stroke-width:0.5;"/><path d="M874.5396,1295.6719 C874.5396,1305.6719 892.5396,1305.6719 892.5396,1305.6719 C892.5396,1305.6719 910.5396,1305.6719 910.5396,1295.6719" fill="none" style="stroke:#181818;stroke-width:0.5;"/></g><rect fill="#EEEEEE" height="3" style="stroke:#EEEEEE;stroke-width:1;" width="948.4082" x="0" y="149.1602"/><line style="stroke:#000000;stroke-width:1;" x1="0" x2="948.4082" y1="149.1602" y2="149.1602"/><line style="stroke:#000000;stroke-width:1;" x1="0" x2="948.4082" y1="152.1602" y2="152.1602"/><rect fill="#EEEEEE" height="23.1328" style="stroke:#000000;stroke-width:2;" width="187.9194" x="380.2444" y="138.5938"/><text fill="#000000" font-family="sans-serif" font-size="13" font-weight="bold" lengthAdjust="spacing" textLength="169.3936" x="386.2444" y="154.6606">D&#233;marrage s&#233;jour SSPI</text><g class="message" data-participant-1="SSPI" data-participant-2="FE"><polygon fill="#181818" points="226.3833,188.8594,236.3833,192.8594,226.3833,196.8594,230.3833,192.8594" style="stroke:#181818;stroke-width:1;"/><line style="stroke:#181818;stroke-width:1;" x1="49.395" x2="232.3833" y1="192.8594" y2="192.8594"/><text fill="#000000" font-family="sans-serif" font-size="13" lengthAdjust="spacing" textLength="129.708" x="56.395" y="187.7935">Ouvrir &#233;cran postop</text></g><g class="message" data-participant-1="FE" data-participant-2="BE"><polygon fill="#181818" points="409.4111,217.9922,419.4111,221.9922,409.4111,225.9922,413.4111,221.9922" style="stroke:#181818;stroke-width:1;"/><line style="stroke:#181818;stroke-width:1;" x1="238.3833" x2="415.4111" y1="221.9922" y2="221.9922"/><text fill="#000000" font-family="sans-serif" font-size="13" lengthAdjust="spacing" textLength="159.0278" x="245.3833" y="216.9263">StartPostOpStay(caseId)</text></g><g class="message" data-participant-1="BE" data-participant-2="POSTOP"><polygon fill="#181818" points="649.0601,247.125,659.0601,251.125,649.0601,255.125,653.0601,251.125" style="stroke:#181818;stroke-width:1;"/><line style="stroke:#181818;stroke-width:1;" x1="421.4111" x2="655.0601" y1="251.125" y2="251.125"/><text fill="#000000" font-family="sans-serif" font-size="13" lengthAdjust="spacing" textLength="111.4014" x="428.4111" y="246.0591">startStay(caseId)</text></g><g class="message" data-participant-1="POSTOP" data-participant-2="DB"><polygon fill="#181818" points="880.5396,276.2578,890.5396,280.2578,880.5396,284.2578,884.5396,280.2578" style="stroke:#181818;stroke-width:1;"/><line style="stroke:#181818;stroke-width:1;" x1="661.0601" x2="886.5396" y1="280.2578" y2="280.2578"/><text fill="#000000" font-family="sans-serif" font-size="13" lengthAdjust="spacing" textLength="122.77" x="668.0601" y="275.1919">Create PostOpStay</text></g><g class="message" data-participant-1="DB" data-participant-2="POSTOP"><polygon fill="#181818" points="672.0601,305.3906,662.0601,309.3906,672.0601,313.3906,668.0601,309.3906" style="stroke:#181818;stroke-width:1;"/><line style="stroke:#181818;stroke-width:1;stroke-dasharray:2,2;" x1="666.0601" x2="891.5396" y1="309.3906" y2="309.3906"/><text fill="#000000" font-family="sans-serif" font-size="13" lengthAdjust="spacing" textLength="72.6553" x="678.0601" y="304.3247">Stay active</text></g><g class="message" data-participant-1="POSTOP" data-participant-2="BE"><polygon fill="#181818" points="432.4111,334.5234,422.4111,338.5234,432.4111,342.5234,428.4111,338.5234" style="stroke:#181818;stroke-width:1;"/><line style="stroke:#181818;stroke-width:1;stroke-dasharray:2,2;" x1="426.4111" x2="660.0601" y1="338.5234" y2="338.5234"/><text fill="#000000" font-family="sans-serif" font-size="13" lengthAdjust="spacing" textLength="79.6694" x="438.4111" y="333.4575">Stay started</text></g><g class="message" data-participant-1="BE" data-participant-2="FE"><polygon fill="#181818" points="249.3833,363.6563,239.3833,367.6563,249.3833,371.6563,245.3833,367.6563" style="stroke:#181818;stroke-width:1;"/><line style="stroke:#181818;stroke-width:1;stroke-dasharray:2,2;" x1="243.3833" x2="420.4111" y1="367.6563" y2="367.6563"/><text fill="#000000" font-family="sans-serif" font-size="13" lengthAdjust="spacing" textLength="69.9512" x="255.3833" y="362.5903">StayReady</text></g><rect fill="#EEEEEE" height="3" style="stroke:#EEEEEE;stroke-width:1;" width="948.4082" x="0" y="396.2227"/><line style="stroke:#000000;stroke-width:1;" x1="0" x2="948.4082" y1="396.2227" y2="396.2227"/><line style="stroke:#000000;stroke-width:1;" x1="0" x2="948.4082" y1="399.2227" y2="399.2227"/><rect fill="#EEEEEE" height="23.1328" style="stroke:#000000;stroke-width:2;" width="162.9033" x="392.7524" y="385.6563"/><text fill="#000000" font-family="sans-serif" font-size="13" font-weight="bold" lengthAdjust="spacing" textLength="144.3774" x="398.7524" y="401.7231">Observation postop</text><g class="message" data-participant-1="SSPI" data-participant-2="FE"><polygon fill="#181818" points="226.3833,435.9219,236.3833,439.9219,226.3833,443.9219,230.3833,439.9219" style="stroke:#181818;stroke-width:1;"/><line style="stroke:#181818;stroke-width:1;" x1="49.395" x2="232.3833" y1="439.9219" y2="439.9219"/><text fill="#000000" font-family="sans-serif" font-size="13" lengthAdjust="spacing" textLength="164.9883" x="56.395" y="434.856">Saisir observation postop</text></g><g class="message" data-participant-1="FE" data-participant-2="BE"><polygon fill="#181818" points="409.4111,465.0547,419.4111,469.0547,409.4111,473.0547,413.4111,469.0547" style="stroke:#181818;stroke-width:1;"/><line style="stroke:#181818;stroke-width:1;" x1="238.3833" x2="415.4111" y1="469.0547" y2="469.0547"/><text fill="#000000" font-family="sans-serif" font-size="13" lengthAdjust="spacing" textLength="115.2798" x="245.3833" y="463.9888">POST observation</text></g><g class="message" data-participant-1="BE" data-participant-2="POSTOP"><polygon fill="#181818" points="649.0601,494.1875,659.0601,498.1875,649.0601,502.1875,653.0601,498.1875" style="stroke:#181818;stroke-width:1;"/><line style="stroke:#181818;stroke-width:1;" x1="421.4111" x2="655.0601" y1="498.1875" y2="498.1875"/><text fill="#000000" font-family="sans-serif" font-size="13" lengthAdjust="spacing" textLength="109.5923" x="428.4111" y="493.1216">saveObservation</text></g><g class="message" data-participant-1="POSTOP" data-participant-2="DB"><polygon fill="#181818" points="880.5396,523.3203,890.5396,527.3203,880.5396,531.3203,884.5396,527.3203" style="stroke:#181818;stroke-width:1;"/><line style="stroke:#181818;stroke-width:1;" x1="661.0601" x2="886.5396" y1="527.3203" y2="527.3203"/><text fill="#000000" font-family="sans-serif" font-size="13" lengthAdjust="spacing" textLength="161.3511" x="668.0601" y="522.2544">Save PostOpObservation</text></g><g class="message" data-participant-1="DB" data-participant-2="POSTOP"><polygon fill="#181818" points="672.0601,552.4531,662.0601,556.4531,672.0601,560.4531,668.0601,556.4531" style="stroke:#181818;stroke-width:1;"/><line style="stroke:#181818;stroke-width:1;stroke-dasharray:2,2;" x1="666.0601" x2="891.5396" y1="556.4531" y2="556.4531"/><text fill="#000000" font-family="sans-serif" font-size="13" lengthAdjust="spacing" textLength="121.9766" x="678.0601" y="551.3872">Observation saved</text></g><rect fill="#EEEEEE" height="3" style="stroke:#EEEEEE;stroke-width:1;" width="948.4082" x="0" y="585.0195"/><line style="stroke:#000000;stroke-width:1;" x1="0" x2="948.4082" y1="585.0195" y2="585.0195"/><line style="stroke:#000000;stroke-width:1;" x1="0" x2="948.4082" y1="588.0195" y2="588.0195"/><rect fill="#EEEEEE" height="23.1328" style="stroke:#000000;stroke-width:2;" width="121.3198" x="413.5442" y="574.4531"/><text fill="#000000" font-family="sans-serif" font-size="13" font-weight="bold" lengthAdjust="spacing" textLength="102.7939" x="419.5442" y="590.52">Calcul Aldrete</text><g class="message" data-participant-1="POSTOP" data-participant-2="POSTOP"><line style="stroke:#181818;stroke-width:1;" x1="661.0601" x2="703.0601" y1="628.7188" y2="628.7188"/><line style="stroke:#181818;stroke-width:1;" x1="703.0601" x2="703.0601" y1="628.7188" y2="641.7188"/><line style="stroke:#181818;stroke-width:1;" x1="662.0601" x2="703.0601" y1="641.7188" y2="641.7188"/><polygon fill="#181818" points="672.0601,637.7188,662.0601,641.7188,672.0601,645.7188,668.0601,641.7188" style="stroke:#181818;stroke-width:1;"/><text fill="#000000" font-family="sans-serif" font-size="13" lengthAdjust="spacing" textLength="108.6782" x="668.0601" y="623.6528">compute Aldrete</text></g><g class="message" data-participant-1="POSTOP" data-participant-2="DB"><polygon fill="#181818" points="880.5396,666.8516,890.5396,670.8516,880.5396,674.8516,884.5396,670.8516" style="stroke:#181818;stroke-width:1;"/><line style="stroke:#181818;stroke-width:1;" x1="661.0601" x2="886.5396" y1="670.8516" y2="670.8516"/><text fill="#000000" font-family="sans-serif" font-size="13" lengthAdjust="spacing" textLength="189.3062" x="668.0601" y="665.7856">Save ClinicalScore(ALDRETE)</text></g><g class="message" data-participant-1="DB" data-participant-2="POSTOP"><polygon fill="#181818" points="672.0601,695.9844,662.0601,699.9844,672.0601,703.9844,668.0601,699.9844" style="stroke:#181818;stroke-width:1;"/><line style="stroke:#181818;stroke-width:1;stroke-dasharray:2,2;" x1="666.0601" x2="891.5396" y1="699.9844" y2="699.9844"/><text fill="#000000" font-family="sans-serif" font-size="13" lengthAdjust="spacing" textLength="79.5107" x="678.0601" y="694.9185">Score saved</text></g><g class="message" data-participant-1="POSTOP" data-participant-2="BE"><polygon fill="#181818" points="432.4111,725.1172,422.4111,729.1172,432.4111,733.1172,428.4111,729.1172" style="stroke:#181818;stroke-width:1;"/><line style="stroke:#181818;stroke-width:1;stroke-dasharray:2,2;" x1="426.4111" x2="660.0601" y1="729.1172" y2="729.1172"/><text fill="#000000" font-family="sans-serif" font-size="13" lengthAdjust="spacing" textLength="215.6489" x="438.4111" y="724.0513">Observation + score + readiness</text></g><g class="message" data-participant-1="BE" data-participant-2="FE"><polygon fill="#181818" points="249.3833,754.25,239.3833,758.25,249.3833,762.25,245.3833,758.25" style="stroke:#181818;stroke-width:1;"/><line style="stroke:#181818;stroke-width:1;stroke-dasharray:2,2;" x1="243.3833" x2="420.4111" y1="758.25" y2="758.25"/><text fill="#000000" font-family="sans-serif" font-size="13" lengthAdjust="spacing" textLength="141.064" x="255.3833" y="753.1841">Afficher score Aldrete</text></g><rect fill="#EEEEEE" height="3" style="stroke:#EEEEEE;stroke-width:1;" width="948.4082" x="0" y="786.8164"/><line style="stroke:#000000;stroke-width:1;" x1="0" x2="948.4082" y1="786.8164" y2="786.8164"/><line style="stroke:#000000;stroke-width:1;" x1="0" x2="948.4082" y1="789.8164" y2="789.8164"/><rect fill="#EEEEEE" height="23.1328" style="stroke:#000000;stroke-width:2;" width="111.5444" x="418.4319" y="776.25"/><text fill="#000000" font-family="sans-serif" font-size="13" font-weight="bold" lengthAdjust="spacing" textLength="93.0186" x="424.4319" y="792.3169">Consultation</text><g class="message" data-participant-1="SSPI" data-participant-2="FE"><polygon fill="#181818" points="226.3833,826.5156,236.3833,830.5156,226.3833,834.5156,230.3833,830.5156" style="stroke:#181818;stroke-width:1;"/><line style="stroke:#181818;stroke-width:1;" x1="49.395" x2="232.3833" y1="830.5156" y2="830.5156"/><text fill="#000000" font-family="sans-serif" font-size="13" lengthAdjust="spacing" textLength="162.9761" x="56.395" y="825.4497">Consulter score de sortie</text></g><g class="message" data-participant-1="FE" data-participant-2="BE"><polygon fill="#181818" points="409.4111,855.6484,419.4111,859.6484,409.4111,863.6484,413.4111,859.6484" style="stroke:#181818;stroke-width:1;"/><line style="stroke:#181818;stroke-width:1;" x1="238.3833" x2="415.4111" y1="859.6484" y2="859.6484"/><text fill="#000000" font-family="sans-serif" font-size="13" lengthAdjust="spacing" textLength="127.3784" x="245.3833" y="854.5825">GET /scores/aldrete</text></g><g class="message" data-participant-1="BE" data-participant-2="POSTOP"><polygon fill="#181818" points="649.0601,884.7813,659.0601,888.7813,649.0601,892.7813,653.0601,888.7813" style="stroke:#181818;stroke-width:1;"/><line style="stroke:#181818;stroke-width:1;" x1="421.4111" x2="655.0601" y1="888.7813" y2="888.7813"/><text fill="#000000" font-family="sans-serif" font-size="13" lengthAdjust="spacing" textLength="120.6563" x="428.4111" y="883.7153">getAldrete(caseId)</text></g><g class="message" data-participant-1="POSTOP" data-participant-2="DB"><polygon fill="#181818" points="880.5396,913.9141,890.5396,917.9141,880.5396,921.9141,884.5396,917.9141" style="stroke:#181818;stroke-width:1;"/><line style="stroke:#181818;stroke-width:1;" x1="661.0601" x2="886.5396" y1="917.9141" y2="917.9141"/><text fill="#000000" font-family="sans-serif" font-size="13" lengthAdjust="spacing" textLength="207.4795" x="668.0601" y="912.8481">Load latest observation + score</text></g><g class="message" data-participant-1="DB" data-participant-2="POSTOP"><polygon fill="#181818" points="672.0601,943.0469,662.0601,947.0469,672.0601,951.0469,668.0601,947.0469" style="stroke:#181818;stroke-width:1;"/><line style="stroke:#181818;stroke-width:1;stroke-dasharray:2,2;" x1="666.0601" x2="891.5396" y1="947.0469" y2="947.0469"/><text fill="#000000" font-family="sans-serif" font-size="13" lengthAdjust="spacing" textLength="31.04" x="678.0601" y="941.981">Data</text></g><g class="message" data-participant-1="POSTOP" data-participant-2="BE"><polygon fill="#181818" points="432.4111,972.1797,422.4111,976.1797,432.4111,980.1797,428.4111,976.1797" style="stroke:#181818;stroke-width:1;"/><line style="stroke:#181818;stroke-width:1;stroke-dasharray:2,2;" x1="426.4111" x2="660.0601" y1="976.1797" y2="976.1797"/><text fill="#000000" font-family="sans-serif" font-size="13" lengthAdjust="spacing" textLength="103.0225" x="438.4111" y="971.1138">Aldrete payload</text></g><g class="message" data-participant-1="BE" data-participant-2="FE"><polygon fill="#181818" points="249.3833,1001.3125,239.3833,1005.3125,249.3833,1009.3125,245.3833,1005.3125" style="stroke:#181818;stroke-width:1;"/><line style="stroke:#181818;stroke-width:1;stroke-dasharray:2,2;" x1="243.3833" x2="420.4111" y1="1005.3125" y2="1005.3125"/><text fill="#000000" font-family="sans-serif" font-size="13" lengthAdjust="spacing" textLength="89.7368" x="255.3833" y="1000.2466">Afficher score</text></g><rect fill="#EEEEEE" height="3" style="stroke:#EEEEEE;stroke-width:1;" width="948.4082" x="0" y="1033.8789"/><line style="stroke:#000000;stroke-width:1;" x1="0" x2="948.4082" y1="1033.8789" y2="1033.8789"/><line style="stroke:#000000;stroke-width:1;" x1="0" x2="948.4082" y1="1036.8789" y2="1036.8789"/><rect fill="#EEEEEE" height="23.1328" style="stroke:#000000;stroke-width:2;" width="91.251" x="428.5786" y="1023.3125"/><text fill="#000000" font-family="sans-serif" font-size="13" font-weight="bold" lengthAdjust="spacing" textLength="72.7251" x="434.5786" y="1039.3794">Fin s&#233;jour</text><g class="message" data-participant-1="SSPI" data-participant-2="FE"><polygon fill="#181818" points="226.3833,1073.5781,236.3833,1077.5781,226.3833,1081.5781,230.3833,1077.5781" style="stroke:#181818;stroke-width:1;"/><line style="stroke:#181818;stroke-width:1;" x1="49.395" x2="232.3833" y1="1077.5781" y2="1077.5781"/><text fill="#000000" font-family="sans-serif" font-size="13" lengthAdjust="spacing" textLength="135.5034" x="56.395" y="1072.5122">Terminer s&#233;jour SSPI</text></g><g class="message" data-participant-1="FE" data-participant-2="BE"><polygon fill="#181818" points="409.4111,1102.7109,419.4111,1106.7109,409.4111,1110.7109,413.4111,1106.7109" style="stroke:#181818;stroke-width:1;"/><line style="stroke:#181818;stroke-width:1;" x1="238.3833" x2="415.4111" y1="1106.7109" y2="1106.7109"/><text fill="#000000" font-family="sans-serif" font-size="13" lengthAdjust="spacing" textLength="151.9756" x="245.3833" y="1101.645">EndPostOpStay(caseId)</text></g><g class="message" data-participant-1="BE" data-participant-2="POSTOP"><polygon fill="#181818" points="649.0601,1131.8438,659.0601,1135.8438,649.0601,1139.8438,653.0601,1135.8438" style="stroke:#181818;stroke-width:1;"/><line style="stroke:#181818;stroke-width:1;" x1="421.4111" x2="655.0601" y1="1135.8438" y2="1135.8438"/><text fill="#000000" font-family="sans-serif" font-size="13" lengthAdjust="spacing" textLength="105.6123" x="428.4111" y="1130.7778">endStay(caseId)</text></g><g class="message" data-participant-1="POSTOP" data-participant-2="DB"><polygon fill="#181818" points="880.5396,1160.9766,890.5396,1164.9766,880.5396,1168.9766,884.5396,1164.9766" style="stroke:#181818;stroke-width:1;"/><line style="stroke:#181818;stroke-width:1;" x1="661.0601" x2="886.5396" y1="1164.9766" y2="1164.9766"/><text fill="#000000" font-family="sans-serif" font-size="13" lengthAdjust="spacing" textLength="123.6143" x="668.0601" y="1159.9106">Update stay ended</text></g><g class="message" data-participant-1="DB" data-participant-2="POSTOP"><polygon fill="#181818" points="672.0601,1190.1094,662.0601,1194.1094,672.0601,1198.1094,668.0601,1194.1094" style="stroke:#181818;stroke-width:1;"/><line style="stroke:#181818;stroke-width:1;stroke-dasharray:2,2;" x1="666.0601" x2="891.5396" y1="1194.1094" y2="1194.1094"/><text fill="#000000" font-family="sans-serif" font-size="13" lengthAdjust="spacing" textLength="18.7573" x="678.0601" y="1189.0435">OK</text></g><g class="message" data-participant-1="POSTOP" data-participant-2="BE"><polygon fill="#181818" points="432.4111,1219.2422,422.4111,1223.2422,432.4111,1227.2422,428.4111,1223.2422" style="stroke:#181818;stroke-width:1;"/><line style="stroke:#181818;stroke-width:1;stroke-dasharray:2,2;" x1="426.4111" x2="660.0601" y1="1223.2422" y2="1223.2422"/><text fill="#000000" font-family="sans-serif" font-size="13" lengthAdjust="spacing" textLength="73.8804" x="438.4111" y="1218.1763">Stay ended</text></g><g class="message" data-participant-1="BE" data-participant-2="FE"><polygon fill="#181818" points="249.3833,1248.375,239.3833,1252.375,249.3833,1256.375,245.3833,1252.375" style="stroke:#181818;stroke-width:1;"/><line style="stroke:#181818;stroke-width:1;stroke-dasharray:2,2;" x1="243.3833" x2="420.4111" y1="1252.375" y2="1252.375"/><text fill="#000000" font-family="sans-serif" font-size="13" lengthAdjust="spacing" textLength="84.335" x="255.3833" y="1247.3091">Confirmation</text></g><!--SRC=[XLHHZjem4FtFAKPyWLQ8_qfK8YHKg5k1DlG0i_50tIPnrdQG-EiXUWdEmKrwaeuTmuPaT_j5y7j-yzvC9bRQWY1PhE7lxp-GqKj3LSu74WyQInXlbR5JLL_E6gsIcc06MRPTJw88SwiqZDANHjRa3qU0nZz4DMehSrbZPM7an5TQLPOg0MD_spDNwP0NO_xBqHP1BUvnd9rD3T-KQ0hoZEqcssssaK2BpsYebKd2Fyz8uYYQpo6vd4lK6Wy4vdB-gHhjlS9y7ldVwMTs19zWqnorr70vvnehgBcWgYD668yTdbasrFhWnzCuvpfhCObYJsdjCCqusXqXG4nAOYOiDQ4bU5MA-7ZQbN27m6sMHxfTxhWujJL8-D9N-mvu8XGd7thpR4WVqKfrZJB8cw4qd5SDcDtGhdoNCaYBH-hKwcVD60v9kwn-uAvRfoXyXYKMULF0eX2Qk67i_rNzTZLNPTqm6bXl6bWMif8v5bckD8qNZybJkaidmxOxEDJljxthy06CPpu0JrB8YeovcyHYlvVv3zA1TdNc8wdAD8LjTVe32U3jec0pYdU0kWFvakvWvd4pmw3Scyc1RAZvtYlug510mM-XiNVp3ya6dN5hDMZ9TIurdWhM-w05FlfALhVzwoVVaIwvZ_fkGRkfqqhyV_Fu-_7HtdslXTixunQ8gJpamMluzUrrQzdTV3oglTIbxze_]--></g></svg>